<?xml version="1.0" encoding="UTF-8" standalone="no"?>
<!-- Created with Inkscape (http://www.inkscape.org/) -->

<svg
   width="512"
   height="512"
   viewBox="0 0 512 512"
   version="1.1"
   id="svg1"
   xml:space="preserve"
   inkscape:version="1.4 (86a8ad7, 2024-10-11)"
   sodipodi:docname="KuroNeko.svg"
   xmlns:inkscape="http://www.inkscape.org/namespaces/inkscape"
   xmlns:sodipodi="http://sodipodi.sourceforge.net/DTD/sodipodi-0.dtd"
   xmlns="http://www.w3.org/2000/svg"
   xmlns:svg="http://www.w3.org/2000/svg"><sodipodi:namedview
     id="namedview1"
     pagecolor="#ffffff"
     bordercolor="#000000"
     borderopacity="0.25"
     inkscape:showpageshadow="2"
     inkscape:pageopacity="0.0"
     inkscape:pagecheckerboard="0"
     inkscape:deskcolor="#d1d1d1"
     inkscape:document-units="px"
     inkscape:zoom="0.78808594"
     inkscape:cx="136.40644"
     inkscape:cy="364.17348"
     inkscape:window-width="1205"
     inkscape:window-height="1032"
     inkscape:window-x="-6"
     inkscape:window-y="0"
     inkscape:window-maximized="0"
     inkscape:current-layer="layer1" /><defs
     id="defs1" /><g
     inkscape:label="Capa 1"
     inkscape:groupmode="layer"
     id="layer1"
     style="opacity:1"><path
       style="fill:#000000;stroke-width:1.01758"
       d="m 256.79437,506.42702 c -9.99718,-1.43924 -16.20207,-3.17672 -21.22431,-5.9432 -2.37599,-1.30881 -4.32019,-2.5562 -4.32044,-2.772 -2.5e-4,-0.21581 6.73171,-0.27684 14.95989,-0.13564 24.10098,0.41357 45.19146,-1.64963 60.10473,-5.87981 10.73675,-3.0455 26.32784,-9.72886 24.31332,-10.42226 -0.5068,-0.17445 -5.91617,0.53419 -12.02085,1.57476 -15.9659,2.72144 -22.27314,3.3888 -36.64369,3.87721 -23.06213,0.78382 -52.18196,-1.6088 -83.39463,-6.85211 -21.86968,-3.6738 -37.96917,-8.06904 -57.85034,-15.79342 -24.51764,-9.52579 -48.507447,-25.12786 -66.13505,-43.0118 -11.944985,-12.11867 -17.762171,-23.39332 -8.505737,-16.48548 1.508878,1.12604 8.052661,6.36914 14.541737,11.65132 13.858269,11.2808 26.55812,19.44231 42.96773,27.61308 12.30191,6.12543 28.76993,12.15527 38.54346,14.11284 12.27845,2.4593 32.11932,3.44 31.80201,1.57193 -0.0706,-0.41566 -6.74688,-2.85021 -14.83616,-5.4101 -30.5497,-9.66758 -54.56062,-21.41904 -78.19704,-38.27131 -36.908607,-26.31502 -60.462363,-58.82718 -67.916699,-93.748 -3.40327,-15.94308 -3.669259,-33.47839 -0.555338,-36.6107 0.941837,-0.9474 1.227714,-0.85679 2.206452,0.69931 0.618434,0.98325 1.707498,5.01852 2.420142,8.96725 1.686306,9.34379 10.640474,36.59603 14.682481,44.68651 4.668515,9.3445 11.13026,18.38431 12.300123,17.20753 0.1746,-0.17563 -0.651093,-2.53071 -1.834876,-5.2335 -7.68595,-17.54858 -10.409658,-40.34988 -6.91615,-57.89805 3.9408,-19.79497 13.608702,-38.96459 25.674971,-50.90857 9.422134,-9.32665 20.130494,-14.14002 33.086694,-14.87235 10.35594,-0.58535 17.10499,0.59704 24.8147,4.3474 14.36742,6.98895 23.27479,20.90771 23.2645,36.35337 -0.005,7.48738 -0.71747,10.37183 -4.54059,18.38239 -5.22049,10.9385 -12.6354,16.57647 -21.75082,16.53839 -5.3149,-0.0222 -8.88703,-1.41588 -10.84828,-4.23251 -2.09076,-3.0026 -1.53096,-3.43845 4.78714,-3.72707 6.61221,-0.30203 8.81856,-1.41055 11.94873,-6.00321 1.50542,-2.20879 1.71612,-3.29867 1.4794,-7.65269 -0.31583,-5.80925 -1.55366,-7.98643 -6.5663,-11.54919 -2.83393,-2.01424 -3.79013,-2.26568 -8.56919,-2.25332 -11.8897,0.0307 -19.48217,7.98442 -22.36149,23.42535 -1.56831,8.41045 0.97911,23.50817 5.4586,32.35128 6.08659,12.0157 19.62961,27.42513 34.46859,39.21879 18.06478,14.35748 45.76521,32.2121 65.82656,42.42928 19.09457,9.7248 39.8048,17.99986 49.31165,19.70317 2.80094,0.50185 2.83241,0.48123 1.87825,-1.23017 -2.49654,-4.47786 -7.91992,-8.47506 -22.38255,-16.49671 -36.14909,-20.04995 -47.00194,-27.17268 -59.10515,-38.79076 -8.1859,-7.85779 -13.94206,-14.96677 -17.27528,-21.33536 -2.19684,-4.19735 -2.04862,-5.63633 0.77198,-7.49537 3.5217,-2.32115 6.20105,-0.96997 19.76312,9.96636 18.20601,14.68116 31.06057,22.9838 49.42514,31.92329 21.79206,10.60792 34.23393,15.46957 53.29466,20.82485 16.00299,4.49617 25.4437,5.92099 39.14973,5.90857 10.95959,-0.0102 12.79198,-0.21388 20.75558,-2.31042 20.72101,-5.45509 40.29749,-15.60738 50.55294,-26.21659 6.48176,-6.70534 12.44312,-17.74334 16.66038,-30.84826 2.38717,-7.418 3.24979,-19.6602 1.85987,-26.395 -0.82915,-4.01753 -2.51318,-6.69616 -3.55253,-5.65066 -0.25463,0.25612 -1.09093,4.30055 -1.85848,8.98764 -2.39528,14.62707 -5.34988,21.73647 -13.33021,32.07542 -19.13377,24.78882 -43.34329,35.36913 -77.74255,33.97588 -6.55275,-0.26541 -12.2261,-0.67652 -12.60745,-0.91359 -1.76948,-1.10006 -9.21897,-17.81341 -10.90145,-24.45799 -4.62426,-18.26266 -2.50607,-41.27831 5.18134,-56.29868 3.82253,-7.46878 12.03741,-16.04813 19.72343,-20.5985 6.03586,-3.57341 18.0763,-8.24314 24.29921,-9.42414 5.39761,-1.02436 22.06148,-0.34972 29.04329,1.17583 10.06604,2.19945 20.67039,6.55355 27.64376,11.35038 3.33676,2.29531 3.53532,2.33923 3.53532,0.78214 0,-1.59477 -6.82064,-8.74459 -12.37733,-12.97469 -13.29953,-10.12443 -33.37879,-14.78788 -51.48342,-11.95713 -22.72921,3.55383 -41.03483,15.20615 -52.20188,33.22876 -9.71567,15.68025 -12.36369,49.62556 -5.72333,73.36826 0.81375,2.9096 1.7068,5.88533 1.98456,6.61273 0.69805,1.82815 -0.73879,1.71614 -8.14226,-0.6347 -13.1873,-4.18741 -21.94275,-8.18514 -25.82401,-11.79125 -0.89587,-0.83235 -4.61482,-6.26629 -8.26434,-12.07546 -3.64953,-5.80914 -8.17689,-13.00283 -10.0608,-15.98596 -1.88391,-2.98312 -8.0126,-13.07573 -13.61932,-22.42802 -5.60669,-9.35229 -11.89982,-19.7922 -13.98472,-23.19983 -5.07502,-8.29474 -16.5342,-29.96662 -20.3365,-38.46086 -3.66639,-8.19064 -9.11582,-24.93443 -11.67144,-35.86141 -7.06822,-30.22128 -7.09455,-67.8407 -0.076,-108.53005 3.20136,-18.559433 9.81028,-44.332873 13.86015,-54.051612 2.5163,-6.038542 7.40592,-14.985737 8.18967,-14.985737 0.30818,0 1.17426,2.975734 1.92459,6.612734 1.84959,8.965279 3.71708,13.704603 6.85177,17.388398 3.24905,3.818224 6.57172,5.929452 10.47954,6.658731 3.36707,0.628362 3.53038,1.192713 -1.64628,-5.688893 -7.24951,-9.637172 -8.91497,-30.530962 -3.37597,-42.352994 2.29503,-4.898379 14.54316,-18.0069897 19.62514,-21.0039101 l 3.3136,-1.9540792 2.03962,2.4575631 c 7.21444,8.6927732 12.07088,26.3454972 10.5883,38.4875852 -0.31977,2.618937 -0.34461,4.908921 -0.0552,5.08885 0.28943,0.179929 1.41927,-1.030309 2.51078,-2.68942 1.72969,-2.629184 2.49798,-5.108179 3.91742,-12.640254 0.28804,-1.528455 0.75588,-1.700169 4.62612,-1.698004 7.69544,0.0041 17.18342,2.14752 25.18106,5.688064 16.7303,7.406471 28.82435,16.572356 33.12132,25.102085 2.26272,4.491645 2.55836,8.591317 0.72936,10.113822 -2.02808,1.688207 -3.97891,6.830924 -3.99661,10.535731 -0.0232,4.850768 1.71013,10.095646 5.22774,15.81878 1.66059,2.70177 3.01944,5.52954 3.01968,6.28393 6.2e-4,2.02907 -7.24533,15.24102 -11.60662,21.16301 -4.73692,6.43204 -10.43098,10.30131 -19.09891,12.97826 -23.37071,7.21763 -33.16712,13.30399 -46.84305,29.10291 -21.3952,24.71648 -32.5972,68.52455 -26.08841,102.02496 1.04616,5.38446 2.19749,9.06922 2.83324,9.06756 0.27787,-7.3e-4 0.54827,-4.16674 0.60088,-9.25782 0.30369,-29.38896 9.21132,-61.57374 22.61822,-81.72353 5.4808,-8.23731 15.12443,-18.92188 20.33897,-22.53436 6.09928,-4.2254 21.51411,-12.73841 22.66364,-12.51626 1.64431,0.31777 2.04355,27.73958 0.5056,34.72652 -4.57391,20.77921 -5.15036,22.73389 -12.10621,41.05003 -16.02634,42.20054 -20.19888,85.60259 -11.56035,120.24889 0.86179,3.45632 2.02473,6.8914 2.58435,7.63347 0.86747,1.15035 1.02099,-0.74666 1.04136,-12.8682 0.067,-39.91977 5.00047,-68.79843 19.58346,-114.63628 8.65105,-27.1923 11.10676,-38.28243 11.74126,-53.024 0.32719,-7.60158 0.73676,-10.97525 1.30454,-10.74545 0.45519,0.18422 1.77784,1.68255 2.93923,3.32961 3.33241,4.72593 21.13305,16.89767 32.72564,22.37714 3.15321,1.49043 10.8044,4.84143 17.00265,7.44667 24.29243,10.21054 32.89922,14.58413 45.79861,23.27285 10.42935,7.02495 18.02977,13.25392 27.10062,22.21049 9.92298,9.79796 13.25208,13.7547 21.19168,25.18693 17.16455,24.71527 24.69723,47.58283 26.13914,79.35274 1.15758,25.50513 -5.76474,55.56679 -17.48952,75.95191 -13.62552,23.68984 -30.76225,42.74666 -47.75237,53.10281 -10.36401,6.31729 -24.7131,12.26873 -29.58022,12.26873 -3.00156,0 -1.94104,-1.97183 3.28054,-6.09954 7.1191,-5.62773 26.69589,-24.36038 31.44477,-30.08891 4.45782,-5.37742 9.65484,-15.00497 9.24771,-17.13151 -0.35158,-1.83639 -6.06099,3.12076 -25.87315,22.46421 -14.69419,14.34657 -20.86085,19.32737 -35.08628,28.33914 -11.62873,7.36678 -27.25122,12.71502 -46.36233,15.87177 -9.74396,1.6095 -14.71172,1.96635 -30.42778,2.18577 -13.11762,0.18313 -20.93526,-0.0477 -25.91994,-0.76531 z m -38.5838,-361.84263 c 14.1422,-10.6527 33.5371,-18.6166 50.22899,-20.62493 5.46499,-0.65753 5.97772,-0.91671 4.7522,-2.40209 -0.80029,-0.96998 -2.24059,-1.07404 -8.86429,-0.64036 -14.46624,0.94716 -23.60322,3.63414 -34.49884,10.14533 -5.75662,3.44015 -14.80064,11.59807 -16.91399,15.25682 -1.83304,3.17349 -0.74849,2.81822 5.29593,-1.73477 z m -8.19691,-22.18335 c 18.59916,-6.79716 30.98765,-9.1957 51.12674,-9.89868 13.38721,-0.46732 14.85495,-0.92741 10.24889,-3.21276 -1.65508,-0.82119 -5.44788,-1.09728 -15.34623,-1.11706 -10.90365,-0.0218 -14.4943,0.26576 -21.03648,1.68467 -15.90004,3.44851 -29.51962,8.42473 -34.37211,12.55859 -2.65355,2.26058 -3.37799,4.74159 -1.12695,3.85949 0.72313,-0.28337 5.45089,-2.02679 10.50614,-3.87425 z M 209.46228,100.388 c 5.91321,-1.113263 11.03094,-1.330919 29.83844,-1.269041 12.48557,0.04101 22.52913,-0.205162 22.31898,-0.547179 -0.74113,-1.206272 -8.10017,-2.908828 -16.31076,-3.773608 -16.8306,-1.772671 -37.58009,0.735982 -43.89955,5.307528 -2.00127,1.44774 -2.22759,2.60047 -0.39927,2.03364 0.72313,-0.22418 4.5266,-1.01229 8.45216,-1.75134 z m 75.34701,-6.725951 c 0.85443,-0.859474 -3.23964,-7.874 -7.20183,-12.339163 -2.14983,-2.422731 -5.11844,-5.803094 -6.59691,-7.511917 l -2.68813,-3.10696 h -6.82953 c -3.75625,0 -7.36432,-0.206423 -8.01794,-0.458721 -1.78661,-0.689639 -1.47176,1.583984 1.03933,7.50561 3.12302,7.364586 5.30784,9.879537 11.05518,12.725667 3.89602,1.92932 6.36121,2.586116 11.078,2.951464 3.33678,0.258453 6.43313,0.522569 6.88077,0.586927 0.44765,0.0644 1.02413,-0.0945 1.28106,-0.352907 z M 46.883655,304.79459 C 45.338699,302.36912 44.4635,298.4091 43.005165,287.24557 41.416847,275.087 41.848308,268.63382 44.952,258.12762 c 4.087591,-13.83676 10.146583,-25.19714 17.454526,-32.72661 5.574007,-5.74296 14.826431,-10.82351 14.826431,-8.14126 0,0.76168 -4.422619,6.86506 -7.161049,9.88251 -4.942293,5.44588 -15.481524,29.78405 -17.344798,40.05424 -0.640998,3.5331 -1.412969,13.05541 -1.715501,21.16073 -0.488687,13.09272 -1.243299,18.13778 -2.712933,18.13778 -0.182545,0 -0.819301,-0.76519 -1.415021,-1.70042 z M 353.24781,145.32222 c -0.87536,-0.51343 -3.58006,-2.57053 -6.01042,-4.57131 -2.43036,-2.0008 -7.52299,-5.69084 -11.31696,-8.20013 -7.05244,-4.66439 -8.62505,-6.38827 -6.55625,-7.18683 4.19896,-1.62081 20.17033,8.61151 25.93403,16.61506 1.66154,2.30723 1.96741,3.20655 1.24702,3.66648 -1.24606,0.79553 -1.41885,0.77859 -3.29742,-0.32327 z m 4.22115,-21.26086 c -5.53706,-2.24866 -11.83936,-3.95865 -19.42374,-5.27019 -6.75121,-1.16746 -8.54869,-2.11404 -6.99059,-3.68135 1.29699,-1.30465 11.24693,-1.03135 17.6458,0.4847 6.62664,1.57001 15.73093,5.39089 17.48144,7.33663 1.1748,1.30579 1.21366,1.62213 0.27285,2.22072 -1.69676,1.07959 -4.47132,0.74287 -8.98576,-1.09051 z m -26.05025,-16.77301 c -0.81878,-2.14631 0.50454,-3.16993 5.8926,-4.55804 3.90486,-1.006 8.13044,-1.41572 14.52288,-1.40817 9.87999,0.0116 14.25093,0.94852 17.45581,3.74137 2.92385,2.54794 1.64992,3.4751 -3.5567,2.58858 -5.96131,-1.01502 -26.84945,-1.10171 -30.66551,-0.12727 -2.64886,0.6764 -3.31737,0.63307 -3.64908,-0.23647 z M 298.9908,41.664465 c -4.10094,-3.337122 -16.28571,-9.747974 -23.27028,-12.243319 -2.14506,-0.766356 -3.9001,-1.661264 -3.9001,-1.988677 0,-0.958878 11.80109,-8.395079 19.36671,-12.203527 7.15997,-3.604249 21.59638,-9.5069324 23.26974,-9.5144133 1.41222,-0.00613 1.14574,3.9340306 -0.86856,12.8433913 -2.26053,9.998476 -8.07779,26.021543 -9.51959,26.220833 -0.58807,0.08123 -2.87314,-1.320145 -5.07792,-3.114288 z"
       id="path1"
       inkscape:label="path1" /></g></svg>
